<svg xmlns="http://www.w3.org/2000/svg" width="24" height="24" fill="none">
  <path fill="#fff" fill-rule="evenodd" d="M19.8649 17.2c-.1292-.1201-.2273-.2447-.2605-.36-.1305-.457.0416-1.7852.3004-2.1999.258-.4162-.0278-1.6651-.1122-1.8718-.0868-.2079-.1159-.4777-.4121-.3959-.2979.0834-.9673.0523-1.5727-.0722-.607-.1234-1.1355-.7081-1.2564-1.3674-.1354-.7391-.1354-1.45713.0374-1.90733.1932-.50607.6689-.69764 1.1044-.9363.2006-.10936 1.1712-.26421 1.1347-.73117-.2256-.43024-2.2861.05907-2.3687-.60944-.0836-.6697-.1131-1.00575.1483-1.54455.2742-.56194-.0411-.48691-.1168-1.16818-.0103-.09699.2045-.34763.2215-.43583.7109.4043 1.3786.88762 1.9777 1.46313C20.5667 6.8667 21.6 9.26454 21.6 11.8152c0 1.9517-.6095 3.8103-1.7351 5.3848Zm-4.4212-.3029c-.4097.6505-.3112 1.1297-1.2459 1.627-.5206.2773-.891.3559-1.1664 1.1007-.2766.7432-.7352.717-1.8801 1.3208-1.1466.6053-1.60202 0-1.69541-.4643-.093-.4643.18956-1.561.18956-1.561s.11207-.3276-.70024-.6976c-2.05423-.9355-.28177-4.2198-.28177-4.2198-.46418-.5433-1.64291-1.6089-3.2886-1.9579C3.80148 11.7121 3.3528 10.7887 2.8 9.867c.40457-1.70645 1.25464-3.27465 2.50967-4.54823C7.10479 3.49786 9.49086 2.4 12.0315 2.4c0 0 .8568 0 1.6656.2124-.7396.81413-1.567 1.63712-2.1818 1.86403-1.1068.41109-1.61987 1.08456-1.62464 1.80196-.00239.3716.76704 1.04506.76704 1.89708 0 1.44809-1.06272 1.48155-1.18671.87135-.27978-1.38401-1.35002-1.02652-2.63168-.88788-1.28364.13985-2.06138 1.65123-1.23715 2.25576.82583.6046.78331-.191 1.10084-.41793.31594-.22731.53929-.31718.77933 0 .23805.31723.75429.48973.70461 1.14063-.04331.6505-.18241 1.2074.68991 1.2074.87114 0 .90134.1943 1.45415.4728.5472.2789 1.0655.2265 1.5221.32.4586.0923 1.0595.9903 1.0595.9903 1.2999.426 1.7275.6001 2.0864.9628.3577.3627.8592 1.1555.4447 1.8064ZM11.9986 0h-.0064C7.23149 0 3.13019 2.7812 1.19038 6.8.430136 8.3748 9e-8 10.1344 9e-8 12-.00080016 18.6264 5.3653 24 11.9938 24h.0064C18.6263 24 24.0008 18.6264 24 12.0016 24.0008 5.314 18.5467 0 11.9986 0Z" clip-rule="evenodd"/>
</svg>
